<svg data-v-423bf9ae="" xmlns="http://www.w3.org/2000/svg" viewBox="0 0 100 90" class="iconLeft"><!----><!----><!----><g data-v-423bf9ae="" id="04c9a93a-12c3-4d41-a24b-8e2cd779e77e" fill="white" transform="matrix(6.315788839662568,0,0,6.315788839662568,109.36842694269627,-34.705256014848274)"></g><!----><g data-v-423bf9ae="" id="bbdafdc4-2449-43ad-81cb-83fb38791e77" transform="matrix(1,0,0,1,-5,-5)" stroke="none" fill="white"><path d="M84 5H16C9.9 5 5 9.6 5 15.3V67c0 5.7 4.9 10.3 11 10.3h7.2v15.3c0 .9.6 1.8 1.5 2.2.4.2.7.2 1.1.2.6 0 1.2-.2 1.7-.5l22.7-17.2H84c6.1 0 11-4.6 11-10.3V15.3C95 9.6 90.1 5 84 5zm5.9 61.9c0 3-2.6 5.4-5.8 5.4H49.2c-.6 0-1.2.2-1.7.5L28.4 87.3V74.7c0-1.3-1.2-2.4-2.6-2.4H16c-3.2 0-5.8-2.4-5.8-5.4V15.5c0-3 2.6-5.4 5.8-5.4h68.2c3.2 0 5.8 2.4 5.8 5.4v51.4z"></path><path d="M23.5 31.5h8.8v24h6.2v-24h8.7v-5.2H23.5zM76 26.3h-7.9l-11.2 12v-12h-6v29.2h6v-9.8l2.9-3 9 12.8h7.8L64 38.3z"></path></g><!----></svg>