<svg data-v-423bf9ae="" xmlns="http://www.w3.org/2000/svg" viewBox="0 0 299 90" class="iconLeft"><!----><!----><!----><g data-v-423bf9ae="" id="04c9a93a-12c3-4d41-a24b-8e2cd779e77e" fill="white" transform="matrix(6.315788839662568,0,0,6.315788839662568,109.36842694269627,-34.705256014848274)"><path d="M4.61 10.46L4.61 17.18L2.14 17.18L2.14 10.46L0.10 10.46L0.10 8.43L6.65 8.43L6.65 10.46L4.61 10.46ZM10.77 9.98L10.77 9.98Q12.38 9.98 13.10 10.54L13.10 10.54L13.10 10.54Q13.83 11.09 13.83 12.32L13.83 12.32L13.83 17.18L12.61 17.18L12.00 16.48L12.00 16.48Q10.93 17.37 9.59 17.37L9.59 17.37L9.59 17.37Q8.34 17.37 7.78 16.82L7.78 16.82L7.78 16.82Q7.21 16.27 7.21 15.06L7.21 15.06L7.21 15.06Q7.21 14.17 7.55 13.68L7.55 13.68L7.55 13.68Q7.90 13.19 8.71 12.98L8.71 12.98L8.71 12.98Q9.52 12.77 11.00 12.77L11.00 12.77L11.37 12.77L11.37 11.89L11.37 11.89Q11.07 11.80 10.50 11.80L10.50 11.80L10.50 11.80Q9.24 11.80 7.83 12.17L7.83 12.17L7.53 10.44L7.53 10.44Q8.99 9.98 10.77 9.98L10.77 9.98ZM10.37 15.68L10.37 15.68Q10.95 15.68 11.16 15.55L11.16 15.55L11.16 15.55Q11.37 15.43 11.37 15.08L11.37 15.08L11.37 14.06L10.49 14.06L10.49 14.06Q9.91 14.06 9.70 14.19L9.70 14.19L9.70 14.19Q9.48 14.32 9.48 14.69L9.48 14.69L9.48 15.68L10.37 15.68ZM18.54 14.20L17.91 14.20L17.91 17.18L15.44 17.18L15.44 8.08L17.91 7.87L17.91 12.70L18.51 12.70L19.63 10.18L22.23 10.18L20.57 13.50L22.30 17.18L19.73 17.18L18.54 14.20ZM26.45 17.37L26.45 17.37Q25.17 17.37 24.40 17.00L24.40 17.00L24.40 17.00Q23.63 16.62 23.27 15.81L23.27 15.81L23.27 15.81Q22.90 15.01 22.90 13.68L22.90 13.68L22.90 13.68Q22.90 12.35 23.27 11.54L23.27 11.54L23.27 11.54Q23.63 10.72 24.40 10.35L24.40 10.35L24.40 10.35Q25.17 9.98 26.45 9.98L26.45 9.98L26.45 9.98Q27.73 9.98 28.51 10.35L28.51 10.35L28.51 10.35Q29.29 10.72 29.64 11.54L29.64 11.54L29.64 11.54Q30.00 12.35 30.00 13.68L30.00 13.68L30.00 13.68Q30.00 15.01 29.64 15.81L29.64 15.81L29.64 15.81Q29.27 16.62 28.50 17.00L28.50 17.00L28.50 17.00Q27.72 17.37 26.45 17.37L26.45 17.37ZM25.55 15.50L26.80 15.50L26.80 15.50Q27.13 15.50 27.25 15.42L27.25 15.42L27.25 15.42Q27.37 15.34 27.37 15.12L27.37 15.12L27.37 11.86L26.12 11.86L26.12 11.86Q25.79 11.86 25.67 11.94L25.67 11.94L25.67 11.94Q25.55 12.01 25.55 12.24L25.55 12.24L25.55 15.50Z"></path></g><!----><g data-v-423bf9ae="" id="bbdafdc4-2449-43ad-81cb-83fb38791e77" transform="matrix(1,0,0,1,-5,-5)" stroke="none" fill="white"><path d="M84 5H16C9.9 5 5 9.6 5 15.3V67c0 5.7 4.9 10.3 11 10.3h7.2v15.3c0 .9.6 1.8 1.5 2.2.4.2.7.2 1.1.2.6 0 1.2-.2 1.7-.5l22.7-17.2H84c6.1 0 11-4.6 11-10.3V15.3C95 9.6 90.1 5 84 5zm5.9 61.9c0 3-2.6 5.4-5.8 5.4H49.2c-.6 0-1.2.2-1.7.5L28.4 87.3V74.7c0-1.3-1.2-2.4-2.6-2.4H16c-3.2 0-5.8-2.4-5.8-5.4V15.5c0-3 2.6-5.4 5.8-5.4h68.2c3.2 0 5.8 2.4 5.8 5.4v51.4z"></path><path d="M23.5 31.5h8.8v24h6.2v-24h8.7v-5.2H23.5zM76 26.3h-7.9l-11.2 12v-12h-6v29.2h6v-9.8l2.9-3 9 12.8h7.8L64 38.3z"></path></g><!----></svg>